<?xml version="1.0" standalone="no"?>
<!DOCTYPE svg PUBLIC "-//W3C//DTD SVG 1.1//EN"
"http://www.w3.org/Graphics/SVG/1.1/DTD/svg11.dtd">
<svg width="100%" height="100%" version="1.1"
xmlns="http://www.w3.org/2000/svg">
<rect x="610" y="610" width="20" height="20"
style="fill:rgb(125,125,125);stroke-width:1;
stroke:rgb(0,0,0)"/>
<rect x="570" y="610" width="20" height="20"
style="fill:rgb(125,125,125);stroke-width:1;
stroke:rgb(0,0,0)"/>
<rect x="610" y="570" width="20" height="20"
style="fill:rgb(125,125,125);stroke-width:1;
stroke:rgb(0,0,0)"/>
<rect x="570" y="570" width="20" height="20"
style="fill:rgb(125,125,125);stroke-width:1;
stroke:rgb(0,0,0)"/>
<rect x="580" y="580" width="40" height="40"
style="fill:rgb(125,125,125);stroke-width:1;
stroke:rgb(0,0,0)"/>
<rect x="530" y="610" width="20" height="20"
style="fill:rgb(125,125,125);stroke-width:1;
stroke:rgb(0,0,0)"/>
<rect x="490" y="610" width="20" height="20"
style="fill:rgb(125,125,125);stroke-width:1;
stroke:rgb(0,0,0)"/>
<rect x="530" y="570" width="20" height="20"
style="fill:rgb(125,125,125);stroke-width:1;
stroke:rgb(0,0,0)"/>
<rect x="490" y="570" width="20" height="20"
style="fill:rgb(125,125,125);stroke-width:1;
stroke:rgb(0,0,0)"/>
<rect x="500" y="580" width="40" height="40"
style="fill:rgb(125,125,125);stroke-width:1;
stroke:rgb(0,0,0)"/>
<rect x="610" y="530" width="20" height="20"
style="fill:rgb(125,125,125);stroke-width:1;
stroke:rgb(0,0,0)"/>
<rect x="570" y="530" width="20" height="20"
style="fill:rgb(125,125,125);stroke-width:1;
stroke:rgb(0,0,0)"/>
<rect x="610" y="490" width="20" height="20"
style="fill:rgb(125,125,125);stroke-width:1;
stroke:rgb(0,0,0)"/>
<rect x="570" y="490" width="20" height="20"
style="fill:rgb(125,125,125);stroke-width:1;
stroke:rgb(0,0,0)"/>
<rect x="580" y="500" width="40" height="40"
style="fill:rgb(125,125,125);stroke-width:1;
stroke:rgb(0,0,0)"/>
<rect x="530" y="530" width="20" height="20"
style="fill:rgb(125,125,125);stroke-width:1;
stroke:rgb(0,0,0)"/>
<rect x="490" y="530" width="20" height="20"
style="fill:rgb(125,125,125);stroke-width:1;
stroke:rgb(0,0,0)"/>
<rect x="530" y="490" width="20" height="20"
style="fill:rgb(125,125,125);stroke-width:1;
stroke:rgb(0,0,0)"/>
<rect x="490" y="490" width="20" height="20"
style="fill:rgb(125,125,125);stroke-width:1;
stroke:rgb(0,0,0)"/>
<rect x="500" y="500" width="40" height="40"
style="fill:rgb(125,125,125);stroke-width:1;
stroke:rgb(0,0,0)"/>
<rect x="520" y="520" width="80" height="80"
style="fill:rgb(125,125,125);stroke-width:1;
stroke:rgb(0,0,0)"/>
<rect x="450" y="610" width="20" height="20"
style="fill:rgb(125,125,125);stroke-width:1;
stroke:rgb(0,0,0)"/>
<rect x="410" y="610" width="20" height="20"
style="fill:rgb(125,125,125);stroke-width:1;
stroke:rgb(0,0,0)"/>
<rect x="450" y="570" width="20" height="20"
style="fill:rgb(125,125,125);stroke-width:1;
stroke:rgb(0,0,0)"/>
<rect x="410" y="570" width="20" height="20"
style="fill:rgb(125,125,125);stroke-width:1;
stroke:rgb(0,0,0)"/>
<rect x="420" y="580" width="40" height="40"
style="fill:rgb(125,125,125);stroke-width:1;
stroke:rgb(0,0,0)"/>
<rect x="370" y="610" width="20" height="20"
style="fill:rgb(125,125,125);stroke-width:1;
stroke:rgb(0,0,0)"/>
<rect x="330" y="610" width="20" height="20"
style="fill:rgb(125,125,125);stroke-width:1;
stroke:rgb(0,0,0)"/>
<rect x="370" y="570" width="20" height="20"
style="fill:rgb(125,125,125);stroke-width:1;
stroke:rgb(0,0,0)"/>
<rect x="330" y="570" width="20" height="20"
style="fill:rgb(125,125,125);stroke-width:1;
stroke:rgb(0,0,0)"/>
<rect x="340" y="580" width="40" height="40"
style="fill:rgb(125,125,125);stroke-width:1;
stroke:rgb(0,0,0)"/>
<rect x="450" y="530" width="20" height="20"
style="fill:rgb(125,125,125);stroke-width:1;
stroke:rgb(0,0,0)"/>
<rect x="410" y="530" width="20" height="20"
style="fill:rgb(125,125,125);stroke-width:1;
stroke:rgb(0,0,0)"/>
<rect x="450" y="490" width="20" height="20"
style="fill:rgb(125,125,125);stroke-width:1;
stroke:rgb(0,0,0)"/>
<rect x="410" y="490" width="20" height="20"
style="fill:rgb(125,125,125);stroke-width:1;
stroke:rgb(0,0,0)"/>
<rect x="420" y="500" width="40" height="40"
style="fill:rgb(125,125,125);stroke-width:1;
stroke:rgb(0,0,0)"/>
<rect x="370" y="530" width="20" height="20"
style="fill:rgb(125,125,125);stroke-width:1;
stroke:rgb(0,0,0)"/>
<rect x="330" y="530" width="20" height="20"
style="fill:rgb(125,125,125);stroke-width:1;
stroke:rgb(0,0,0)"/>
<rect x="370" y="490" width="20" height="20"
style="fill:rgb(125,125,125);stroke-width:1;
stroke:rgb(0,0,0)"/>
<rect x="330" y="490" width="20" height="20"
style="fill:rgb(125,125,125);stroke-width:1;
stroke:rgb(0,0,0)"/>
<rect x="340" y="500" width="40" height="40"
style="fill:rgb(125,125,125);stroke-width:1;
stroke:rgb(0,0,0)"/>
<rect x="360" y="520" width="80" height="80"
style="fill:rgb(125,125,125);stroke-width:1;
stroke:rgb(0,0,0)"/>
<rect x="610" y="450" width="20" height="20"
style="fill:rgb(125,125,125);stroke-width:1;
stroke:rgb(0,0,0)"/>
<rect x="570" y="450" width="20" height="20"
style="fill:rgb(125,125,125);stroke-width:1;
stroke:rgb(0,0,0)"/>
<rect x="610" y="410" width="20" height="20"
style="fill:rgb(125,125,125);stroke-width:1;
stroke:rgb(0,0,0)"/>
<rect x="570" y="410" width="20" height="20"
style="fill:rgb(125,125,125);stroke-width:1;
stroke:rgb(0,0,0)"/>
<rect x="580" y="420" width="40" height="40"
style="fill:rgb(125,125,125);stroke-width:1;
stroke:rgb(0,0,0)"/>
<rect x="530" y="450" width="20" height="20"
style="fill:rgb(125,125,125);stroke-width:1;
stroke:rgb(0,0,0)"/>
<rect x="490" y="450" width="20" height="20"
style="fill:rgb(125,125,125);stroke-width:1;
stroke:rgb(0,0,0)"/>
<rect x="530" y="410" width="20" height="20"
style="fill:rgb(125,125,125);stroke-width:1;
stroke:rgb(0,0,0)"/>
<rect x="490" y="410" width="20" height="20"
style="fill:rgb(125,125,125);stroke-width:1;
stroke:rgb(0,0,0)"/>
<rect x="500" y="420" width="40" height="40"
style="fill:rgb(125,125,125);stroke-width:1;
stroke:rgb(0,0,0)"/>
<rect x="610" y="370" width="20" height="20"
style="fill:rgb(125,125,125);stroke-width:1;
stroke:rgb(0,0,0)"/>
<rect x="570" y="370" width="20" height="20"
style="fill:rgb(125,125,125);stroke-width:1;
stroke:rgb(0,0,0)"/>
<rect x="610" y="330" width="20" height="20"
style="fill:rgb(125,125,125);stroke-width:1;
stroke:rgb(0,0,0)"/>
<rect x="570" y="330" width="20" height="20"
style="fill:rgb(125,125,125);stroke-width:1;
stroke:rgb(0,0,0)"/>
<rect x="580" y="340" width="40" height="40"
style="fill:rgb(125,125,125);stroke-width:1;
stroke:rgb(0,0,0)"/>
<rect x="530" y="370" width="20" height="20"
style="fill:rgb(125,125,125);stroke-width:1;
stroke:rgb(0,0,0)"/>
<rect x="490" y="370" width="20" height="20"
style="fill:rgb(125,125,125);stroke-width:1;
stroke:rgb(0,0,0)"/>
<rect x="530" y="330" width="20" height="20"
style="fill:rgb(125,125,125);stroke-width:1;
stroke:rgb(0,0,0)"/>
<rect x="490" y="330" width="20" height="20"
style="fill:rgb(125,125,125);stroke-width:1;
stroke:rgb(0,0,0)"/>
<rect x="500" y="340" width="40" height="40"
style="fill:rgb(125,125,125);stroke-width:1;
stroke:rgb(0,0,0)"/>
<rect x="520" y="360" width="80" height="80"
style="fill:rgb(125,125,125);stroke-width:1;
stroke:rgb(0,0,0)"/>
<rect x="450" y="450" width="20" height="20"
style="fill:rgb(125,125,125);stroke-width:1;
stroke:rgb(0,0,0)"/>
<rect x="410" y="450" width="20" height="20"
style="fill:rgb(125,125,125);stroke-width:1;
stroke:rgb(0,0,0)"/>
<rect x="450" y="410" width="20" height="20"
style="fill:rgb(125,125,125);stroke-width:1;
stroke:rgb(0,0,0)"/>
<rect x="410" y="410" width="20" height="20"
style="fill:rgb(125,125,125);stroke-width:1;
stroke:rgb(0,0,0)"/>
<rect x="420" y="420" width="40" height="40"
style="fill:rgb(125,125,125);stroke-width:1;
stroke:rgb(0,0,0)"/>
<rect x="370" y="450" width="20" height="20"
style="fill:rgb(125,125,125);stroke-width:1;
stroke:rgb(0,0,0)"/>
<rect x="330" y="450" width="20" height="20"
style="fill:rgb(125,125,125);stroke-width:1;
stroke:rgb(0,0,0)"/>
<rect x="370" y="410" width="20" height="20"
style="fill:rgb(125,125,125);stroke-width:1;
stroke:rgb(0,0,0)"/>
<rect x="330" y="410" width="20" height="20"
style="fill:rgb(125,125,125);stroke-width:1;
stroke:rgb(0,0,0)"/>
<rect x="340" y="420" width="40" height="40"
style="fill:rgb(125,125,125);stroke-width:1;
stroke:rgb(0,0,0)"/>
<rect x="450" y="370" width="20" height="20"
style="fill:rgb(125,125,125);stroke-width:1;
stroke:rgb(0,0,0)"/>
<rect x="410" y="370" width="20" height="20"
style="fill:rgb(125,125,125);stroke-width:1;
stroke:rgb(0,0,0)"/>
<rect x="450" y="330" width="20" height="20"
style="fill:rgb(125,125,125);stroke-width:1;
stroke:rgb(0,0,0)"/>
<rect x="410" y="330" width="20" height="20"
style="fill:rgb(125,125,125);stroke-width:1;
stroke:rgb(0,0,0)"/>
<rect x="420" y="340" width="40" height="40"
style="fill:rgb(125,125,125);stroke-width:1;
stroke:rgb(0,0,0)"/>
<rect x="370" y="370" width="20" height="20"
style="fill:rgb(125,125,125);stroke-width:1;
stroke:rgb(0,0,0)"/>
<rect x="330" y="370" width="20" height="20"
style="fill:rgb(125,125,125);stroke-width:1;
stroke:rgb(0,0,0)"/>
<rect x="370" y="330" width="20" height="20"
style="fill:rgb(125,125,125);stroke-width:1;
stroke:rgb(0,0,0)"/>
<rect x="330" y="330" width="20" height="20"
style="fill:rgb(125,125,125);stroke-width:1;
stroke:rgb(0,0,0)"/>
<rect x="340" y="340" width="40" height="40"
style="fill:rgb(125,125,125);stroke-width:1;
stroke:rgb(0,0,0)"/>
<rect x="360" y="360" width="80" height="80"
style="fill:rgb(125,125,125);stroke-width:1;
stroke:rgb(0,0,0)"/>
<rect x="400" y="400" width="160" height="160"
style="fill:rgb(125,125,125);stroke-width:1;
stroke:rgb(0,0,0)"/>
<rect x="290" y="610" width="20" height="20"
style="fill:rgb(125,125,125);stroke-width:1;
stroke:rgb(0,0,0)"/>
<rect x="250" y="610" width="20" height="20"
style="fill:rgb(125,125,125);stroke-width:1;
stroke:rgb(0,0,0)"/>
<rect x="290" y="570" width="20" height="20"
style="fill:rgb(125,125,125);stroke-width:1;
stroke:rgb(0,0,0)"/>
<rect x="250" y="570" width="20" height="20"
style="fill:rgb(125,125,125);stroke-width:1;
stroke:rgb(0,0,0)"/>
<rect x="260" y="580" width="40" height="40"
style="fill:rgb(125,125,125);stroke-width:1;
stroke:rgb(0,0,0)"/>
<rect x="210" y="610" width="20" height="20"
style="fill:rgb(125,125,125);stroke-width:1;
stroke:rgb(0,0,0)"/>
<rect x="170" y="610" width="20" height="20"
style="fill:rgb(125,125,125);stroke-width:1;
stroke:rgb(0,0,0)"/>
<rect x="210" y="570" width="20" height="20"
style="fill:rgb(125,125,125);stroke-width:1;
stroke:rgb(0,0,0)"/>
<rect x="170" y="570" width="20" height="20"
style="fill:rgb(125,125,125);stroke-width:1;
stroke:rgb(0,0,0)"/>
<rect x="180" y="580" width="40" height="40"
style="fill:rgb(125,125,125);stroke-width:1;
stroke:rgb(0,0,0)"/>
<rect x="290" y="530" width="20" height="20"
style="fill:rgb(125,125,125);stroke-width:1;
stroke:rgb(0,0,0)"/>
<rect x="250" y="530" width="20" height="20"
style="fill:rgb(125,125,125);stroke-width:1;
stroke:rgb(0,0,0)"/>
<rect x="290" y="490" width="20" height="20"
style="fill:rgb(125,125,125);stroke-width:1;
stroke:rgb(0,0,0)"/>
<rect x="250" y="490" width="20" height="20"
style="fill:rgb(125,125,125);stroke-width:1;
stroke:rgb(0,0,0)"/>
<rect x="260" y="500" width="40" height="40"
style="fill:rgb(125,125,125);stroke-width:1;
stroke:rgb(0,0,0)"/>
<rect x="210" y="530" width="20" height="20"
style="fill:rgb(125,125,125);stroke-width:1;
stroke:rgb(0,0,0)"/>
<rect x="170" y="530" width="20" height="20"
style="fill:rgb(125,125,125);stroke-width:1;
stroke:rgb(0,0,0)"/>
<rect x="210" y="490" width="20" height="20"
style="fill:rgb(125,125,125);stroke-width:1;
stroke:rgb(0,0,0)"/>
<rect x="170" y="490" width="20" height="20"
style="fill:rgb(125,125,125);stroke-width:1;
stroke:rgb(0,0,0)"/>
<rect x="180" y="500" width="40" height="40"
style="fill:rgb(125,125,125);stroke-width:1;
stroke:rgb(0,0,0)"/>
<rect x="200" y="520" width="80" height="80"
style="fill:rgb(125,125,125);stroke-width:1;
stroke:rgb(0,0,0)"/>
<rect x="130" y="610" width="20" height="20"
style="fill:rgb(125,125,125);stroke-width:1;
stroke:rgb(0,0,0)"/>
<rect x="90" y="610" width="20" height="20"
style="fill:rgb(125,125,125);stroke-width:1;
stroke:rgb(0,0,0)"/>
<rect x="130" y="570" width="20" height="20"
style="fill:rgb(125,125,125);stroke-width:1;
stroke:rgb(0,0,0)"/>
<rect x="90" y="570" width="20" height="20"
style="fill:rgb(125,125,125);stroke-width:1;
stroke:rgb(0,0,0)"/>
<rect x="100" y="580" width="40" height="40"
style="fill:rgb(125,125,125);stroke-width:1;
stroke:rgb(0,0,0)"/>
<rect x="50" y="610" width="20" height="20"
style="fill:rgb(125,125,125);stroke-width:1;
stroke:rgb(0,0,0)"/>
<rect x="10" y="610" width="20" height="20"
style="fill:rgb(125,125,125);stroke-width:1;
stroke:rgb(0,0,0)"/>
<rect x="50" y="570" width="20" height="20"
style="fill:rgb(125,125,125);stroke-width:1;
stroke:rgb(0,0,0)"/>
<rect x="10" y="570" width="20" height="20"
style="fill:rgb(125,125,125);stroke-width:1;
stroke:rgb(0,0,0)"/>
<rect x="20" y="580" width="40" height="40"
style="fill:rgb(125,125,125);stroke-width:1;
stroke:rgb(0,0,0)"/>
<rect x="130" y="530" width="20" height="20"
style="fill:rgb(125,125,125);stroke-width:1;
stroke:rgb(0,0,0)"/>
<rect x="90" y="530" width="20" height="20"
style="fill:rgb(125,125,125);stroke-width:1;
stroke:rgb(0,0,0)"/>
<rect x="130" y="490" width="20" height="20"
style="fill:rgb(125,125,125);stroke-width:1;
stroke:rgb(0,0,0)"/>
<rect x="90" y="490" width="20" height="20"
style="fill:rgb(125,125,125);stroke-width:1;
stroke:rgb(0,0,0)"/>
<rect x="100" y="500" width="40" height="40"
style="fill:rgb(125,125,125);stroke-width:1;
stroke:rgb(0,0,0)"/>
<rect x="50" y="530" width="20" height="20"
style="fill:rgb(125,125,125);stroke-width:1;
stroke:rgb(0,0,0)"/>
<rect x="10" y="530" width="20" height="20"
style="fill:rgb(125,125,125);stroke-width:1;
stroke:rgb(0,0,0)"/>
<rect x="50" y="490" width="20" height="20"
style="fill:rgb(125,125,125);stroke-width:1;
stroke:rgb(0,0,0)"/>
<rect x="10" y="490" width="20" height="20"
style="fill:rgb(125,125,125);stroke-width:1;
stroke:rgb(0,0,0)"/>
<rect x="20" y="500" width="40" height="40"
style="fill:rgb(125,125,125);stroke-width:1;
stroke:rgb(0,0,0)"/>
<rect x="40" y="520" width="80" height="80"
style="fill:rgb(125,125,125);stroke-width:1;
stroke:rgb(0,0,0)"/>
<rect x="290" y="450" width="20" height="20"
style="fill:rgb(125,125,125);stroke-width:1;
stroke:rgb(0,0,0)"/>
<rect x="250" y="450" width="20" height="20"
style="fill:rgb(125,125,125);stroke-width:1;
stroke:rgb(0,0,0)"/>
<rect x="290" y="410" width="20" height="20"
style="fill:rgb(125,125,125);stroke-width:1;
stroke:rgb(0,0,0)"/>
<rect x="250" y="410" width="20" height="20"
style="fill:rgb(125,125,125);stroke-width:1;
stroke:rgb(0,0,0)"/>
<rect x="260" y="420" width="40" height="40"
style="fill:rgb(125,125,125);stroke-width:1;
stroke:rgb(0,0,0)"/>
<rect x="210" y="450" width="20" height="20"
style="fill:rgb(125,125,125);stroke-width:1;
stroke:rgb(0,0,0)"/>
<rect x="170" y="450" width="20" height="20"
style="fill:rgb(125,125,125);stroke-width:1;
stroke:rgb(0,0,0)"/>
<rect x="210" y="410" width="20" height="20"
style="fill:rgb(125,125,125);stroke-width:1;
stroke:rgb(0,0,0)"/>
<rect x="170" y="410" width="20" height="20"
style="fill:rgb(125,125,125);stroke-width:1;
stroke:rgb(0,0,0)"/>
<rect x="180" y="420" width="40" height="40"
style="fill:rgb(125,125,125);stroke-width:1;
stroke:rgb(0,0,0)"/>
<rect x="290" y="370" width="20" height="20"
style="fill:rgb(125,125,125);stroke-width:1;
stroke:rgb(0,0,0)"/>
<rect x="250" y="370" width="20" height="20"
style="fill:rgb(125,125,125);stroke-width:1;
stroke:rgb(0,0,0)"/>
<rect x="290" y="330" width="20" height="20"
style="fill:rgb(125,125,125);stroke-width:1;
stroke:rgb(0,0,0)"/>
<rect x="250" y="330" width="20" height="20"
style="fill:rgb(125,125,125);stroke-width:1;
stroke:rgb(0,0,0)"/>
<rect x="260" y="340" width="40" height="40"
style="fill:rgb(125,125,125);stroke-width:1;
stroke:rgb(0,0,0)"/>
<rect x="210" y="370" width="20" height="20"
style="fill:rgb(125,125,125);stroke-width:1;
stroke:rgb(0,0,0)"/>
<rect x="170" y="370" width="20" height="20"
style="fill:rgb(125,125,125);stroke-width:1;
stroke:rgb(0,0,0)"/>
<rect x="210" y="330" width="20" height="20"
style="fill:rgb(125,125,125);stroke-width:1;
stroke:rgb(0,0,0)"/>
<rect x="170" y="330" width="20" height="20"
style="fill:rgb(125,125,125);stroke-width:1;
stroke:rgb(0,0,0)"/>
<rect x="180" y="340" width="40" height="40"
style="fill:rgb(125,125,125);stroke-width:1;
stroke:rgb(0,0,0)"/>
<rect x="200" y="360" width="80" height="80"
style="fill:rgb(125,125,125);stroke-width:1;
stroke:rgb(0,0,0)"/>
<rect x="130" y="450" width="20" height="20"
style="fill:rgb(125,125,125);stroke-width:1;
stroke:rgb(0,0,0)"/>
<rect x="90" y="450" width="20" height="20"
style="fill:rgb(125,125,125);stroke-width:1;
stroke:rgb(0,0,0)"/>
<rect x="130" y="410" width="20" height="20"
style="fill:rgb(125,125,125);stroke-width:1;
stroke:rgb(0,0,0)"/>
<rect x="90" y="410" width="20" height="20"
style="fill:rgb(125,125,125);stroke-width:1;
stroke:rgb(0,0,0)"/>
<rect x="100" y="420" width="40" height="40"
style="fill:rgb(125,125,125);stroke-width:1;
stroke:rgb(0,0,0)"/>
<rect x="50" y="450" width="20" height="20"
style="fill:rgb(125,125,125);stroke-width:1;
stroke:rgb(0,0,0)"/>
<rect x="10" y="450" width="20" height="20"
style="fill:rgb(125,125,125);stroke-width:1;
stroke:rgb(0,0,0)"/>
<rect x="50" y="410" width="20" height="20"
style="fill:rgb(125,125,125);stroke-width:1;
stroke:rgb(0,0,0)"/>
<rect x="10" y="410" width="20" height="20"
style="fill:rgb(125,125,125);stroke-width:1;
stroke:rgb(0,0,0)"/>
<rect x="20" y="420" width="40" height="40"
style="fill:rgb(125,125,125);stroke-width:1;
stroke:rgb(0,0,0)"/>
<rect x="130" y="370" width="20" height="20"
style="fill:rgb(125,125,125);stroke-width:1;
stroke:rgb(0,0,0)"/>
<rect x="90" y="370" width="20" height="20"
style="fill:rgb(125,125,125);stroke-width:1;
stroke:rgb(0,0,0)"/>
<rect x="130" y="330" width="20" height="20"
style="fill:rgb(125,125,125);stroke-width:1;
stroke:rgb(0,0,0)"/>
<rect x="90" y="330" width="20" height="20"
style="fill:rgb(125,125,125);stroke-width:1;
stroke:rgb(0,0,0)"/>
<rect x="100" y="340" width="40" height="40"
style="fill:rgb(125,125,125);stroke-width:1;
stroke:rgb(0,0,0)"/>
<rect x="50" y="370" width="20" height="20"
style="fill:rgb(125,125,125);stroke-width:1;
stroke:rgb(0,0,0)"/>
<rect x="10" y="370" width="20" height="20"
style="fill:rgb(125,125,125);stroke-width:1;
stroke:rgb(0,0,0)"/>
<rect x="50" y="330" width="20" height="20"
style="fill:rgb(125,125,125);stroke-width:1;
stroke:rgb(0,0,0)"/>
<rect x="10" y="330" width="20" height="20"
style="fill:rgb(125,125,125);stroke-width:1;
stroke:rgb(0,0,0)"/>
<rect x="20" y="340" width="40" height="40"
style="fill:rgb(125,125,125);stroke-width:1;
stroke:rgb(0,0,0)"/>
<rect x="40" y="360" width="80" height="80"
style="fill:rgb(125,125,125);stroke-width:1;
stroke:rgb(0,0,0)"/>
<rect x="80" y="400" width="160" height="160"
style="fill:rgb(125,125,125);stroke-width:1;
stroke:rgb(0,0,0)"/>
<rect x="610" y="290" width="20" height="20"
style="fill:rgb(125,125,125);stroke-width:1;
stroke:rgb(0,0,0)"/>
<rect x="570" y="290" width="20" height="20"
style="fill:rgb(125,125,125);stroke-width:1;
stroke:rgb(0,0,0)"/>
<rect x="610" y="250" width="20" height="20"
style="fill:rgb(125,125,125);stroke-width:1;
stroke:rgb(0,0,0)"/>
<rect x="570" y="250" width="20" height="20"
style="fill:rgb(125,125,125);stroke-width:1;
stroke:rgb(0,0,0)"/>
<rect x="580" y="260" width="40" height="40"
style="fill:rgb(125,125,125);stroke-width:1;
stroke:rgb(0,0,0)"/>
<rect x="530" y="290" width="20" height="20"
style="fill:rgb(125,125,125);stroke-width:1;
stroke:rgb(0,0,0)"/>
<rect x="490" y="290" width="20" height="20"
style="fill:rgb(125,125,125);stroke-width:1;
stroke:rgb(0,0,0)"/>
<rect x="530" y="250" width="20" height="20"
style="fill:rgb(125,125,125);stroke-width:1;
stroke:rgb(0,0,0)"/>
<rect x="490" y="250" width="20" height="20"
style="fill:rgb(125,125,125);stroke-width:1;
stroke:rgb(0,0,0)"/>
<rect x="500" y="260" width="40" height="40"
style="fill:rgb(125,125,125);stroke-width:1;
stroke:rgb(0,0,0)"/>
<rect x="610" y="210" width="20" height="20"
style="fill:rgb(125,125,125);stroke-width:1;
stroke:rgb(0,0,0)"/>
<rect x="570" y="210" width="20" height="20"
style="fill:rgb(125,125,125);stroke-width:1;
stroke:rgb(0,0,0)"/>
<rect x="610" y="170" width="20" height="20"
style="fill:rgb(125,125,125);stroke-width:1;
stroke:rgb(0,0,0)"/>
<rect x="570" y="170" width="20" height="20"
style="fill:rgb(125,125,125);stroke-width:1;
stroke:rgb(0,0,0)"/>
<rect x="580" y="180" width="40" height="40"
style="fill:rgb(125,125,125);stroke-width:1;
stroke:rgb(0,0,0)"/>
<rect x="530" y="210" width="20" height="20"
style="fill:rgb(125,125,125);stroke-width:1;
stroke:rgb(0,0,0)"/>
<rect x="490" y="210" width="20" height="20"
style="fill:rgb(125,125,125);stroke-width:1;
stroke:rgb(0,0,0)"/>
<rect x="530" y="170" width="20" height="20"
style="fill:rgb(125,125,125);stroke-width:1;
stroke:rgb(0,0,0)"/>
<rect x="490" y="170" width="20" height="20"
style="fill:rgb(125,125,125);stroke-width:1;
stroke:rgb(0,0,0)"/>
<rect x="500" y="180" width="40" height="40"
style="fill:rgb(125,125,125);stroke-width:1;
stroke:rgb(0,0,0)"/>
<rect x="520" y="200" width="80" height="80"
style="fill:rgb(125,125,125);stroke-width:1;
stroke:rgb(0,0,0)"/>
<rect x="450" y="290" width="20" height="20"
style="fill:rgb(125,125,125);stroke-width:1;
stroke:rgb(0,0,0)"/>
<rect x="410" y="290" width="20" height="20"
style="fill:rgb(125,125,125);stroke-width:1;
stroke:rgb(0,0,0)"/>
<rect x="450" y="250" width="20" height="20"
style="fill:rgb(125,125,125);stroke-width:1;
stroke:rgb(0,0,0)"/>
<rect x="410" y="250" width="20" height="20"
style="fill:rgb(125,125,125);stroke-width:1;
stroke:rgb(0,0,0)"/>
<rect x="420" y="260" width="40" height="40"
style="fill:rgb(125,125,125);stroke-width:1;
stroke:rgb(0,0,0)"/>
<rect x="370" y="290" width="20" height="20"
style="fill:rgb(125,125,125);stroke-width:1;
stroke:rgb(0,0,0)"/>
<rect x="330" y="290" width="20" height="20"
style="fill:rgb(125,125,125);stroke-width:1;
stroke:rgb(0,0,0)"/>
<rect x="370" y="250" width="20" height="20"
style="fill:rgb(125,125,125);stroke-width:1;
stroke:rgb(0,0,0)"/>
<rect x="330" y="250" width="20" height="20"
style="fill:rgb(125,125,125);stroke-width:1;
stroke:rgb(0,0,0)"/>
<rect x="340" y="260" width="40" height="40"
style="fill:rgb(125,125,125);stroke-width:1;
stroke:rgb(0,0,0)"/>
<rect x="450" y="210" width="20" height="20"
style="fill:rgb(125,125,125);stroke-width:1;
stroke:rgb(0,0,0)"/>
<rect x="410" y="210" width="20" height="20"
style="fill:rgb(125,125,125);stroke-width:1;
stroke:rgb(0,0,0)"/>
<rect x="450" y="170" width="20" height="20"
style="fill:rgb(125,125,125);stroke-width:1;
stroke:rgb(0,0,0)"/>
<rect x="410" y="170" width="20" height="20"
style="fill:rgb(125,125,125);stroke-width:1;
stroke:rgb(0,0,0)"/>
<rect x="420" y="180" width="40" height="40"
style="fill:rgb(125,125,125);stroke-width:1;
stroke:rgb(0,0,0)"/>
<rect x="370" y="210" width="20" height="20"
style="fill:rgb(125,125,125);stroke-width:1;
stroke:rgb(0,0,0)"/>
<rect x="330" y="210" width="20" height="20"
style="fill:rgb(125,125,125);stroke-width:1;
stroke:rgb(0,0,0)"/>
<rect x="370" y="170" width="20" height="20"
style="fill:rgb(125,125,125);stroke-width:1;
stroke:rgb(0,0,0)"/>
<rect x="330" y="170" width="20" height="20"
style="fill:rgb(125,125,125);stroke-width:1;
stroke:rgb(0,0,0)"/>
<rect x="340" y="180" width="40" height="40"
style="fill:rgb(125,125,125);stroke-width:1;
stroke:rgb(0,0,0)"/>
<rect x="360" y="200" width="80" height="80"
style="fill:rgb(125,125,125);stroke-width:1;
stroke:rgb(0,0,0)"/>
<rect x="610" y="130" width="20" height="20"
style="fill:rgb(125,125,125);stroke-width:1;
stroke:rgb(0,0,0)"/>
<rect x="570" y="130" width="20" height="20"
style="fill:rgb(125,125,125);stroke-width:1;
stroke:rgb(0,0,0)"/>
<rect x="610" y="90" width="20" height="20"
style="fill:rgb(125,125,125);stroke-width:1;
stroke:rgb(0,0,0)"/>
<rect x="570" y="90" width="20" height="20"
style="fill:rgb(125,125,125);stroke-width:1;
stroke:rgb(0,0,0)"/>
<rect x="580" y="100" width="40" height="40"
style="fill:rgb(125,125,125);stroke-width:1;
stroke:rgb(0,0,0)"/>
<rect x="530" y="130" width="20" height="20"
style="fill:rgb(125,125,125);stroke-width:1;
stroke:rgb(0,0,0)"/>
<rect x="490" y="130" width="20" height="20"
style="fill:rgb(125,125,125);stroke-width:1;
stroke:rgb(0,0,0)"/>
<rect x="530" y="90" width="20" height="20"
style="fill:rgb(125,125,125);stroke-width:1;
stroke:rgb(0,0,0)"/>
<rect x="490" y="90" width="20" height="20"
style="fill:rgb(125,125,125);stroke-width:1;
stroke:rgb(0,0,0)"/>
<rect x="500" y="100" width="40" height="40"
style="fill:rgb(125,125,125);stroke-width:1;
stroke:rgb(0,0,0)"/>
<rect x="610" y="50" width="20" height="20"
style="fill:rgb(125,125,125);stroke-width:1;
stroke:rgb(0,0,0)"/>
<rect x="570" y="50" width="20" height="20"
style="fill:rgb(125,125,125);stroke-width:1;
stroke:rgb(0,0,0)"/>
<rect x="610" y="10" width="20" height="20"
style="fill:rgb(125,125,125);stroke-width:1;
stroke:rgb(0,0,0)"/>
<rect x="570" y="10" width="20" height="20"
style="fill:rgb(125,125,125);stroke-width:1;
stroke:rgb(0,0,0)"/>
<rect x="580" y="20" width="40" height="40"
style="fill:rgb(125,125,125);stroke-width:1;
stroke:rgb(0,0,0)"/>
<rect x="530" y="50" width="20" height="20"
style="fill:rgb(125,125,125);stroke-width:1;
stroke:rgb(0,0,0)"/>
<rect x="490" y="50" width="20" height="20"
style="fill:rgb(125,125,125);stroke-width:1;
stroke:rgb(0,0,0)"/>
<rect x="530" y="10" width="20" height="20"
style="fill:rgb(125,125,125);stroke-width:1;
stroke:rgb(0,0,0)"/>
<rect x="490" y="10" width="20" height="20"
style="fill:rgb(125,125,125);stroke-width:1;
stroke:rgb(0,0,0)"/>
<rect x="500" y="20" width="40" height="40"
style="fill:rgb(125,125,125);stroke-width:1;
stroke:rgb(0,0,0)"/>
<rect x="520" y="40" width="80" height="80"
style="fill:rgb(125,125,125);stroke-width:1;
stroke:rgb(0,0,0)"/>
<rect x="450" y="130" width="20" height="20"
style="fill:rgb(125,125,125);stroke-width:1;
stroke:rgb(0,0,0)"/>
<rect x="410" y="130" width="20" height="20"
style="fill:rgb(125,125,125);stroke-width:1;
stroke:rgb(0,0,0)"/>
<rect x="450" y="90" width="20" height="20"
style="fill:rgb(125,125,125);stroke-width:1;
stroke:rgb(0,0,0)"/>
<rect x="410" y="90" width="20" height="20"
style="fill:rgb(125,125,125);stroke-width:1;
stroke:rgb(0,0,0)"/>
<rect x="420" y="100" width="40" height="40"
style="fill:rgb(125,125,125);stroke-width:1;
stroke:rgb(0,0,0)"/>
<rect x="370" y="130" width="20" height="20"
style="fill:rgb(125,125,125);stroke-width:1;
stroke:rgb(0,0,0)"/>
<rect x="330" y="130" width="20" height="20"
style="fill:rgb(125,125,125);stroke-width:1;
stroke:rgb(0,0,0)"/>
<rect x="370" y="90" width="20" height="20"
style="fill:rgb(125,125,125);stroke-width:1;
stroke:rgb(0,0,0)"/>
<rect x="330" y="90" width="20" height="20"
style="fill:rgb(125,125,125);stroke-width:1;
stroke:rgb(0,0,0)"/>
<rect x="340" y="100" width="40" height="40"
style="fill:rgb(125,125,125);stroke-width:1;
stroke:rgb(0,0,0)"/>
<rect x="450" y="50" width="20" height="20"
style="fill:rgb(125,125,125);stroke-width:1;
stroke:rgb(0,0,0)"/>
<rect x="410" y="50" width="20" height="20"
style="fill:rgb(125,125,125);stroke-width:1;
stroke:rgb(0,0,0)"/>
<rect x="450" y="10" width="20" height="20"
style="fill:rgb(125,125,125);stroke-width:1;
stroke:rgb(0,0,0)"/>
<rect x="410" y="10" width="20" height="20"
style="fill:rgb(125,125,125);stroke-width:1;
stroke:rgb(0,0,0)"/>
<rect x="420" y="20" width="40" height="40"
style="fill:rgb(125,125,125);stroke-width:1;
stroke:rgb(0,0,0)"/>
<rect x="370" y="50" width="20" height="20"
style="fill:rgb(125,125,125);stroke-width:1;
stroke:rgb(0,0,0)"/>
<rect x="330" y="50" width="20" height="20"
style="fill:rgb(125,125,125);stroke-width:1;
stroke:rgb(0,0,0)"/>
<rect x="370" y="10" width="20" height="20"
style="fill:rgb(125,125,125);stroke-width:1;
stroke:rgb(0,0,0)"/>
<rect x="330" y="10" width="20" height="20"
style="fill:rgb(125,125,125);stroke-width:1;
stroke:rgb(0,0,0)"/>
<rect x="340" y="20" width="40" height="40"
style="fill:rgb(125,125,125);stroke-width:1;
stroke:rgb(0,0,0)"/>
<rect x="360" y="40" width="80" height="80"
style="fill:rgb(125,125,125);stroke-width:1;
stroke:rgb(0,0,0)"/>
<rect x="400" y="80" width="160" height="160"
style="fill:rgb(125,125,125);stroke-width:1;
stroke:rgb(0,0,0)"/>
<rect x="290" y="290" width="20" height="20"
style="fill:rgb(125,125,125);stroke-width:1;
stroke:rgb(0,0,0)"/>
<rect x="250" y="290" width="20" height="20"
style="fill:rgb(125,125,125);stroke-width:1;
stroke:rgb(0,0,0)"/>
<rect x="290" y="250" width="20" height="20"
style="fill:rgb(125,125,125);stroke-width:1;
stroke:rgb(0,0,0)"/>
<rect x="250" y="250" width="20" height="20"
style="fill:rgb(125,125,125);stroke-width:1;
stroke:rgb(0,0,0)"/>
<rect x="260" y="260" width="40" height="40"
style="fill:rgb(125,125,125);stroke-width:1;
stroke:rgb(0,0,0)"/>
<rect x="210" y="290" width="20" height="20"
style="fill:rgb(125,125,125);stroke-width:1;
stroke:rgb(0,0,0)"/>
<rect x="170" y="290" width="20" height="20"
style="fill:rgb(125,125,125);stroke-width:1;
stroke:rgb(0,0,0)"/>
<rect x="210" y="250" width="20" height="20"
style="fill:rgb(125,125,125);stroke-width:1;
stroke:rgb(0,0,0)"/>
<rect x="170" y="250" width="20" height="20"
style="fill:rgb(125,125,125);stroke-width:1;
stroke:rgb(0,0,0)"/>
<rect x="180" y="260" width="40" height="40"
style="fill:rgb(125,125,125);stroke-width:1;
stroke:rgb(0,0,0)"/>
<rect x="290" y="210" width="20" height="20"
style="fill:rgb(125,125,125);stroke-width:1;
stroke:rgb(0,0,0)"/>
<rect x="250" y="210" width="20" height="20"
style="fill:rgb(125,125,125);stroke-width:1;
stroke:rgb(0,0,0)"/>
<rect x="290" y="170" width="20" height="20"
style="fill:rgb(125,125,125);stroke-width:1;
stroke:rgb(0,0,0)"/>
<rect x="250" y="170" width="20" height="20"
style="fill:rgb(125,125,125);stroke-width:1;
stroke:rgb(0,0,0)"/>
<rect x="260" y="180" width="40" height="40"
style="fill:rgb(125,125,125);stroke-width:1;
stroke:rgb(0,0,0)"/>
<rect x="210" y="210" width="20" height="20"
style="fill:rgb(125,125,125);stroke-width:1;
stroke:rgb(0,0,0)"/>
<rect x="170" y="210" width="20" height="20"
style="fill:rgb(125,125,125);stroke-width:1;
stroke:rgb(0,0,0)"/>
<rect x="210" y="170" width="20" height="20"
style="fill:rgb(125,125,125);stroke-width:1;
stroke:rgb(0,0,0)"/>
<rect x="170" y="170" width="20" height="20"
style="fill:rgb(125,125,125);stroke-width:1;
stroke:rgb(0,0,0)"/>
<rect x="180" y="180" width="40" height="40"
style="fill:rgb(125,125,125);stroke-width:1;
stroke:rgb(0,0,0)"/>
<rect x="200" y="200" width="80" height="80"
style="fill:rgb(125,125,125);stroke-width:1;
stroke:rgb(0,0,0)"/>
<rect x="130" y="290" width="20" height="20"
style="fill:rgb(125,125,125);stroke-width:1;
stroke:rgb(0,0,0)"/>
<rect x="90" y="290" width="20" height="20"
style="fill:rgb(125,125,125);stroke-width:1;
stroke:rgb(0,0,0)"/>
<rect x="130" y="250" width="20" height="20"
style="fill:rgb(125,125,125);stroke-width:1;
stroke:rgb(0,0,0)"/>
<rect x="90" y="250" width="20" height="20"
style="fill:rgb(125,125,125);stroke-width:1;
stroke:rgb(0,0,0)"/>
<rect x="100" y="260" width="40" height="40"
style="fill:rgb(125,125,125);stroke-width:1;
stroke:rgb(0,0,0)"/>
<rect x="50" y="290" width="20" height="20"
style="fill:rgb(125,125,125);stroke-width:1;
stroke:rgb(0,0,0)"/>
<rect x="10" y="290" width="20" height="20"
style="fill:rgb(125,125,125);stroke-width:1;
stroke:rgb(0,0,0)"/>
<rect x="50" y="250" width="20" height="20"
style="fill:rgb(125,125,125);stroke-width:1;
stroke:rgb(0,0,0)"/>
<rect x="10" y="250" width="20" height="20"
style="fill:rgb(125,125,125);stroke-width:1;
stroke:rgb(0,0,0)"/>
<rect x="20" y="260" width="40" height="40"
style="fill:rgb(125,125,125);stroke-width:1;
stroke:rgb(0,0,0)"/>
<rect x="130" y="210" width="20" height="20"
style="fill:rgb(125,125,125);stroke-width:1;
stroke:rgb(0,0,0)"/>
<rect x="90" y="210" width="20" height="20"
style="fill:rgb(125,125,125);stroke-width:1;
stroke:rgb(0,0,0)"/>
<rect x="130" y="170" width="20" height="20"
style="fill:rgb(125,125,125);stroke-width:1;
stroke:rgb(0,0,0)"/>
<rect x="90" y="170" width="20" height="20"
style="fill:rgb(125,125,125);stroke-width:1;
stroke:rgb(0,0,0)"/>
<rect x="100" y="180" width="40" height="40"
style="fill:rgb(125,125,125);stroke-width:1;
stroke:rgb(0,0,0)"/>
<rect x="50" y="210" width="20" height="20"
style="fill:rgb(125,125,125);stroke-width:1;
stroke:rgb(0,0,0)"/>
<rect x="10" y="210" width="20" height="20"
style="fill:rgb(125,125,125);stroke-width:1;
stroke:rgb(0,0,0)"/>
<rect x="50" y="170" width="20" height="20"
style="fill:rgb(125,125,125);stroke-width:1;
stroke:rgb(0,0,0)"/>
<rect x="10" y="170" width="20" height="20"
style="fill:rgb(125,125,125);stroke-width:1;
stroke:rgb(0,0,0)"/>
<rect x="20" y="180" width="40" height="40"
style="fill:rgb(125,125,125);stroke-width:1;
stroke:rgb(0,0,0)"/>
<rect x="40" y="200" width="80" height="80"
style="fill:rgb(125,125,125);stroke-width:1;
stroke:rgb(0,0,0)"/>
<rect x="290" y="130" width="20" height="20"
style="fill:rgb(125,125,125);stroke-width:1;
stroke:rgb(0,0,0)"/>
<rect x="250" y="130" width="20" height="20"
style="fill:rgb(125,125,125);stroke-width:1;
stroke:rgb(0,0,0)"/>
<rect x="290" y="90" width="20" height="20"
style="fill:rgb(125,125,125);stroke-width:1;
stroke:rgb(0,0,0)"/>
<rect x="250" y="90" width="20" height="20"
style="fill:rgb(125,125,125);stroke-width:1;
stroke:rgb(0,0,0)"/>
<rect x="260" y="100" width="40" height="40"
style="fill:rgb(125,125,125);stroke-width:1;
stroke:rgb(0,0,0)"/>
<rect x="210" y="130" width="20" height="20"
style="fill:rgb(125,125,125);stroke-width:1;
stroke:rgb(0,0,0)"/>
<rect x="170" y="130" width="20" height="20"
style="fill:rgb(125,125,125);stroke-width:1;
stroke:rgb(0,0,0)"/>
<rect x="210" y="90" width="20" height="20"
style="fill:rgb(125,125,125);stroke-width:1;
stroke:rgb(0,0,0)"/>
<rect x="170" y="90" width="20" height="20"
style="fill:rgb(125,125,125);stroke-width:1;
stroke:rgb(0,0,0)"/>
<rect x="180" y="100" width="40" height="40"
style="fill:rgb(125,125,125);stroke-width:1;
stroke:rgb(0,0,0)"/>
<rect x="290" y="50" width="20" height="20"
style="fill:rgb(125,125,125);stroke-width:1;
stroke:rgb(0,0,0)"/>
<rect x="250" y="50" width="20" height="20"
style="fill:rgb(125,125,125);stroke-width:1;
stroke:rgb(0,0,0)"/>
<rect x="290" y="10" width="20" height="20"
style="fill:rgb(125,125,125);stroke-width:1;
stroke:rgb(0,0,0)"/>
<rect x="250" y="10" width="20" height="20"
style="fill:rgb(125,125,125);stroke-width:1;
stroke:rgb(0,0,0)"/>
<rect x="260" y="20" width="40" height="40"
style="fill:rgb(125,125,125);stroke-width:1;
stroke:rgb(0,0,0)"/>
<rect x="210" y="50" width="20" height="20"
style="fill:rgb(125,125,125);stroke-width:1;
stroke:rgb(0,0,0)"/>
<rect x="170" y="50" width="20" height="20"
style="fill:rgb(125,125,125);stroke-width:1;
stroke:rgb(0,0,0)"/>
<rect x="210" y="10" width="20" height="20"
style="fill:rgb(125,125,125);stroke-width:1;
stroke:rgb(0,0,0)"/>
<rect x="170" y="10" width="20" height="20"
style="fill:rgb(125,125,125);stroke-width:1;
stroke:rgb(0,0,0)"/>
<rect x="180" y="20" width="40" height="40"
style="fill:rgb(125,125,125);stroke-width:1;
stroke:rgb(0,0,0)"/>
<rect x="200" y="40" width="80" height="80"
style="fill:rgb(125,125,125);stroke-width:1;
stroke:rgb(0,0,0)"/>
<rect x="130" y="130" width="20" height="20"
style="fill:rgb(125,125,125);stroke-width:1;
stroke:rgb(0,0,0)"/>
<rect x="90" y="130" width="20" height="20"
style="fill:rgb(125,125,125);stroke-width:1;
stroke:rgb(0,0,0)"/>
<rect x="130" y="90" width="20" height="20"
style="fill:rgb(125,125,125);stroke-width:1;
stroke:rgb(0,0,0)"/>
<rect x="90" y="90" width="20" height="20"
style="fill:rgb(125,125,125);stroke-width:1;
stroke:rgb(0,0,0)"/>
<rect x="100" y="100" width="40" height="40"
style="fill:rgb(125,125,125);stroke-width:1;
stroke:rgb(0,0,0)"/>
<rect x="50" y="130" width="20" height="20"
style="fill:rgb(125,125,125);stroke-width:1;
stroke:rgb(0,0,0)"/>
<rect x="10" y="130" width="20" height="20"
style="fill:rgb(125,125,125);stroke-width:1;
stroke:rgb(0,0,0)"/>
<rect x="50" y="90" width="20" height="20"
style="fill:rgb(125,125,125);stroke-width:1;
stroke:rgb(0,0,0)"/>
<rect x="10" y="90" width="20" height="20"
style="fill:rgb(125,125,125);stroke-width:1;
stroke:rgb(0,0,0)"/>
<rect x="20" y="100" width="40" height="40"
style="fill:rgb(125,125,125);stroke-width:1;
stroke:rgb(0,0,0)"/>
<rect x="130" y="50" width="20" height="20"
style="fill:rgb(125,125,125);stroke-width:1;
stroke:rgb(0,0,0)"/>
<rect x="90" y="50" width="20" height="20"
style="fill:rgb(125,125,125);stroke-width:1;
stroke:rgb(0,0,0)"/>
<rect x="130" y="10" width="20" height="20"
style="fill:rgb(125,125,125);stroke-width:1;
stroke:rgb(0,0,0)"/>
<rect x="90" y="10" width="20" height="20"
style="fill:rgb(125,125,125);stroke-width:1;
stroke:rgb(0,0,0)"/>
<rect x="100" y="20" width="40" height="40"
style="fill:rgb(125,125,125);stroke-width:1;
stroke:rgb(0,0,0)"/>
<rect x="50" y="50" width="20" height="20"
style="fill:rgb(125,125,125);stroke-width:1;
stroke:rgb(0,0,0)"/>
<rect x="10" y="50" width="20" height="20"
style="fill:rgb(125,125,125);stroke-width:1;
stroke:rgb(0,0,0)"/>
<rect x="50" y="10" width="20" height="20"
style="fill:rgb(125,125,125);stroke-width:1;
stroke:rgb(0,0,0)"/>
<rect x="10" y="10" width="20" height="20"
style="fill:rgb(125,125,125);stroke-width:1;
stroke:rgb(0,0,0)"/>
<rect x="20" y="20" width="40" height="40"
style="fill:rgb(125,125,125);stroke-width:1;
stroke:rgb(0,0,0)"/>
<rect x="40" y="40" width="80" height="80"
style="fill:rgb(125,125,125);stroke-width:1;
stroke:rgb(0,0,0)"/>
<rect x="80" y="80" width="160" height="160"
style="fill:rgb(125,125,125);stroke-width:1;
stroke:rgb(0,0,0)"/>
<rect x="160" y="160" width="320" height="320"
style="fill:rgb(125,125,125);stroke-width:1;
stroke:rgb(0,0,0)"/>
</svg>